<svg width="20" height="13" viewBox="0 0 20 13" fill="none" xmlns="http://www.w3.org/2000/svg">
<path d="M9.97333 0C5.44 0 1.56853 2.6762 0 6.45386C1.56853 10.2315 5.44 12.9077 9.97333 12.9077C14.5067 12.9077 18.3781 10.2315 19.9467 6.45386C18.3781 2.6762 14.5067 0 9.97333 0ZM9.97333 10.7564C7.47093 10.7564 5.44 8.82887 5.44 6.45386C5.44 4.07884 7.47093 2.15129 9.97333 2.15129C12.4757 2.15129 14.5067 4.07884 14.5067 6.45386C14.5067 8.82887 12.4757 10.7564 9.97333 10.7564ZM9.97333 3.87231C8.46827 3.87231 7.25333 5.0254 7.25333 6.45386C7.25333 7.88231 8.46827 9.0354 9.97333 9.0354C11.4784 9.0354 12.6933 7.88231 12.6933 6.45386C12.6933 5.0254 11.4784 3.87231 9.97333 3.87231Z" fill="#C4C4C4"/>
</svg>
