<svg width="23" height="16" viewBox="0 0 23 16" fill="none" xmlns="http://www.w3.org/2000/svg">
<path d="M11.48 0.697754C6.94671 0.697754 3.07525 3.37395 1.50671 7.15161C3.07525 10.9293 6.94671 13.6055 11.48 13.6055C16.0134 13.6055 19.8848 10.9293 21.4534 7.15161C19.8848 3.37395 16.0134 0.697754 11.48 0.697754ZM11.48 11.4542C8.97765 11.4542 6.94671 9.52663 6.94671 7.15161C6.94671 4.77659 8.97765 2.84904 11.48 2.84904C13.9824 2.84904 16.0134 4.77659 16.0134 7.15161C16.0134 9.52663 13.9824 11.4542 11.48 11.4542ZM11.48 4.57007C9.97498 4.57007 8.76005 5.72316 8.76005 7.15161C8.76005 8.58006 9.97498 9.73315 11.48 9.73315C12.9851 9.73315 14.2 8.58006 14.2 7.15161C14.2 5.72316 12.9851 4.57007 11.48 4.57007Z" fill="#C4C4C4"/>
<line x1="22.349" y1="0.54838" x2="0.34897" y2="14.5484" stroke="#C4C4C4" stroke-width="1.3"/>
</svg>
